<svg width="696" height="563" viewBox="0 0 696 563" xmlns="http://www.w3.org/2000/svg" xmlns:xlink="http://www.w3.org/1999/xlink"><title>bg-hero-circuits</title><defs><path id="a" d="M.65.32h32.4v278.156H.65z"/></defs><g fill="none" fill-rule="evenodd" opacity=".05"><path d="M402 133.282h200.686c5.965 0 11.687-2.37 15.906-6.59l1.621-1.622a22.495 22.495 0 0 1 15.909-6.59h29.91c6.772 0 12.258-5.49 12.258-12.26V25.25a29.682 29.682 0 0 1 8.692-20.988L712.8-21.56M402 138.084l91.937.076a3.868 3.868 0 0 1 2.682 1.111l23.225 22.984a3.863 3.863 0 0 0 2.712 1.113H629.83c2.745 0 4.97 2.201 4.97 4.916v21.414" stroke="#010202" stroke-width="1.2"/><path d="M496.8 133.282l25.022 25.278a3.802 3.802 0 0 0 2.702 1.13H751.2M300 142.885V96.24c0-3.084 2.49-5.582 5.561-5.582h6.703v-45.96c0-1.303.517-2.553 1.435-3.476l8.866-8.908A4.924 4.924 0 0 0 324 28.838v-148.825" stroke="#010202" stroke-width="1.2"/><path d="M308.4 91.27h35.703a2.694 2.694 0 0 0 2.697-2.689v-116.74a8.525 8.525 0 0 0-2.505-6.036l-5.388-5.37" stroke="#010202" stroke-width="1.2"/><path d="M351.6-77.975v166.89c0 3.24-2.62 5.864-5.856 5.864H307.46a2.663 2.663 0 0 0-2.66 2.664v183.524M452.4 163.29v-56.383h19.077l44.492-44.252a16.36 16.36 0 0 0 4.831-11.601V-26.361" stroke="#010202" stroke-width="1.2"/><path d="M447.6 133.282V7.023c0-2.696 1.077-5.282 2.994-7.188l19.694-19.58a6.89 6.89 0 0 0 2.037-4.89v-16.498c0-1.832.733-3.591 2.038-4.888l15.237-15.15M308.4 90.07V-73.173M315.6 285.724h-69.978a7.825 7.825 0 0 1-5.548-2.311l-28.41-28.587a7.814 7.814 0 0 0-5.547-2.313H159.46c-4.335 0-7.846-3.533-7.846-7.895v-14.935c0-2.858-2.303-5.176-5.144-5.176h-18.924c-2.84 0-5.146 2.318-5.146 5.176v46.464" stroke="#010202" stroke-width="1.2"/><path d="M316.8 280.923h-69.898a7.812 7.812 0 0 1-5.542-2.312l-28.379-28.586a7.801 7.801 0 0 0-5.54-2.313H160.09c-2.842 0-5.148-2.322-5.148-5.184v-14.1c0-4.818-3.876-8.722-8.657-8.722h-19.763c-4.782 0-8.657 3.904-8.657 8.721v18.893H91.2M153.6 90.07H13.2M420.93 133.148l-165.047.134a11.17 11.17 0 0 1-7.924-3.307l-37.132-37.42a7.978 7.978 0 0 0-5.661-2.362h-52.793c-4.992 0-9.039-4.08-9.039-9.11v-9.061c0-3.955-3.18-7.158-7.103-7.158H52.8" stroke="#010202" stroke-width="1.2"/><path d="M419.73 137.95l-164.928.134a11.13 11.13 0 0 1-7.91-3.317l-38.088-38.562a4.468 4.468 0 0 0-3.178-1.333H124.8M553.717 179.796l-381.635.3c-3.104 0-6.08 1.27-8.275 3.535l-2.452 2.53c-2.193 2.265-5.169 3.537-8.274 3.537H130.8M553.717 174.995l-528.517.299" stroke="#010202" stroke-width="1.2"/><path d="M300 142.425H197.202a10.924 10.924 0 0 0-7.747 3.23 10.913 10.913 0 0 1-7.745 3.232h-71.103a10.91 10.91 0 0 1-7.745-3.232L55.63 98.102a10.914 10.914 0 0 0-7.745-3.23H0M506.039 250.915h-255.6c-4.257 0-8.34-1.678-11.351-4.66l-32.98-32.691a16.12 16.12 0 0 0-11.35-4.66H70.8M553.717 193l-306.248.299H80.4M452.4 276.122v29.522l22.554 22.523a19.071 19.071 0 0 0 13.473 5.57H673.2" stroke="#010202" stroke-width="1.2"/><path d="M452.4 310.931l20.882 20.83a19.12 19.12 0 0 0 13.502 5.577H646.8M452.4 292.926v91.93c0 2.575-2.15 4.66-4.802 4.66-2.648 0-4.798 2.084-4.798 4.658v84.803" stroke="#010202" stroke-width="1.2"/><g transform="translate(321.6 284.524)"><mask id="b" fill="#fff"><use xlink:href="#a"/></mask><path d="M.65.32v35.19c0 2.437.964 4.776 2.68 6.5l14.7 14.75a9.206 9.206 0 0 1 2.682 6.5v22.29c0 2.44.967 4.776 2.684 6.5l6.97 6.996a9.21 9.21 0 0 1 2.683 6.498v172.933" stroke="#010202" stroke-width="1.2" mask="url(#b)"/></g><path d="M326.4 283.323v35.125c0 2.434.965 4.766 2.682 6.488l14.699 14.725a9.176 9.176 0 0 1 2.682 6.486v22.25c0 2.433.966 4.767 2.684 6.487l6.969 6.982a9.19 9.19 0 0 1 2.684 6.488v147.038M452.4 242.512h49.845c3.09 0 6.053-1.203 8.24-3.345l9.919-9.728a8.908 8.908 0 0 1 6.233-2.531H697.2M452.4 158.49h9.475a6.16 6.16 0 0 1 4.322 1.757l6.723 6.603a6.166 6.166 0 0 0 4.322 1.756h150.83c1.106 0 2.001.881 2.001 1.967v14.106c0 2.772 2.288 5.019 5.11 5.019H672M465.6 107.825h53.615c2.936 0 5.756 1.167 7.833 3.245a11.083 11.083 0 0 0 7.833 3.243h11.196a11.08 11.08 0 0 0 7.834-3.243l27.17-27.163 24.21-24.2a11.082 11.082 0 0 1 7.834-3.246h126.998c6.117 0 11.077 4.959 11.077 11.076v65.745M417.6-43.166v51.49c0 4.787 1.854 9.38 5.153 12.764l20.637 21.17a10.678 10.678 0 0 1 3.01 7.451v30.759M382.257 331.09V106.962c0-1.908.762-3.737 2.12-5.086l8.306-8.255a7.172 7.172 0 0 0 2.117-5.085V71.033a7.175 7.175 0 0 0-2.117-5.085l-33.778-33.57a8.468 8.468 0 0 1-2.505-6.008v-92.342" stroke="#010202" stroke-width="1.2"/><path d="M386.4 331.09V108.562c0-1.91.731-3.74 2.027-5.093l7.946-8.261a7.356 7.356 0 0 0 2.027-5.09V69.446c0-1.91-.731-3.74-2.027-5.09l-7.802-8.115a7.354 7.354 0 0 1-2.03-5.093V-168M432 284.524h31.775a17.58 17.58 0 0 0 12.377-5.082l45.564-45.173a8.85 8.85 0 0 1 6.231-2.56H655.2" stroke="#010202" stroke-width="1.2"/><path d="M486 270.12h126.618c2.788 0 5.46 1.114 7.43 3.098l25.552 25.71" stroke="#010202" stroke-width="1.2"/><path d="M489.6 266.519H614.438c2.794 0 5.473 1.106 7.447 3.072L720 367.346M452.4 174.094h86.011c5.699 0 10.32 4.568 10.32 10.202 0 5.635 4.62 10.203 10.32 10.203H786" stroke="#010202" stroke-width="1.2"/><path d="M290.4 132.082l-95.296-94.977A10.545 10.545 0 0 1 192 29.633v-40.39" stroke="#010202" stroke-width="1.094"/><path d="M516 62.463l30.513-30.65a6.495 6.495 0 0 0 1.887-4.575v-65.55c0-1.718-.68-3.362-1.887-4.576l-6.366-6.395a6.483 6.483 0 0 1-1.887-4.576v-7.312" stroke="#010202" stroke-width="1.2"/><path d="M537.6 40.857h81.856c3.172 0 5.744-2.558 5.744-5.71V-61.17M145.2 478.977v-84.465c0-3.761 1.494-7.367 4.154-10.028l17.58-17.589a14.183 14.183 0 0 1 10.025-4.153h54.338a14.18 14.18 0 0 0 10.027-4.154l46.801-46.818 7.72-7.726A14.179 14.179 0 0 0 300 294.015v-13.092" stroke="#010202" stroke-width="1.2"/><path d="M150 502.984V397.01c0-3.78 1.493-7.408 4.148-10.082l14.967-15.074a14.1 14.1 0 0 1 10.01-4.179h54.27c3.751 0 7.352-1.5 10.005-4.172l57.25-57.617a14.314 14.314 0 0 0 4.15-10.088v-11.274M258 284.524h-30.506a8.715 8.715 0 0 0-6.093 2.47l-17.05 16.666a8.723 8.723 0 0 1-6.095 2.47H80.4" stroke="#010202" stroke-width="1.2"/><path d="M300 289.325h-71.174c-2.282 0-4.472.91-6.087 2.53l-17.025 17.078a8.59 8.59 0 0 1-6.088 2.53H114.21c-4.757 0-8.61 3.868-8.61 8.638v109.663M474 333.737l35.333 34.994a14.36 14.36 0 0 1 4.267 10.203v118.048M517.2 519.788v-182.45M517.2 376.95l24.336 24.342 66.864 66.882M202.8 90.07l-37.243-37.204a8.915 8.915 0 0 1-2.61-6.299v-63.543c0-2.36-.94-4.627-2.611-6.296L122.4-61.171" stroke="#010202" stroke-width="1.2"/><path d="M210 93.672l-40.817-41.157a8.983 8.983 0 0 1-2.597-6.321V-17.58c0-2.37-.933-4.644-2.595-6.32L105.6-82.777M321.6 314.532v93.61a12.31 12.31 0 0 1-3.716 8.794l-4.572 4.483a12.323 12.323 0 0 0-3.712 8.794v94.376M351.6 378.15l36.906 37.002a7.823 7.823 0 0 0 5.538 2.3h34.923c4.325 0 7.833 3.516 7.833 7.852v75.279" stroke="#010202" stroke-width="1.2"/><path d="M446.4 284.524v40.547c0 4.46-3.637 8.074-8.122 8.074h-54.554c-4.487 0-8.124 3.617-8.124 8.078v60.933" stroke="#010202" stroke-width="1.2"/><path d="M441.6 280.923v43.534c0 2.81-2.293 5.09-5.12 5.09h-55.482c-2.982 0-5.398 2.4-5.398 5.363v63.645M550.8 409.358h76.8M242.32 85.27l17.728-17.806A13.593 13.593 0 0 0 264 57.877V-7.018c0-7.487-6.041-13.555-13.495-13.555h-39.01c-7.454 0-13.495-6.07-13.495-13.555v-43.847M464.4 242.512h9.205a23.49 23.49 0 0 0 16.561-6.822l33.894-33.707a13.362 13.362 0 0 1 9.423-3.883H608.4M205.2 362.545H40.8M211.2 297.727l-16.408-16.417a21.791 21.791 0 0 0-15.412-6.389H48M375.6 351.742v-67.218M198-39.565v80.422M452.4 367.346l17.879 17.933a7.583 7.583 0 0 1 2.212 5.353v75.975c0 4.18 3.378 7.569 7.548 7.569H508.8M304.8 295.327v183.65M460.8 284.524h124.594c2.791 0 5.47 1.122 7.445 3.12l45.561 46.093M541.2 36.056h72.27c3.165 0 5.73-2.542 5.73-5.674v-66.346M452.4 114.077V8.835a8.11 8.11 0 0 1 2.395-5.749l49.574-49.255a6.86 6.86 0 0 0 2.031-4.865v-56.95M162 18.05h-41.653a8.96 8.96 0 0 1-6.255-2.525L105.6 7.248M380.4 405.757v102.028" stroke="#010202" stroke-width="1.2"/><path d="M259.2 67.264l20.498-20.798a7.804 7.804 0 0 0 2.237-5.48V3.728c0-2.056.806-4.027 2.237-5.48l8.793-8.92a7.813 7.813 0 0 0 2.235-5.479v-27.016M417.6 7.248v128.435M255.6 351.742l-4.215 3.95c-2.679 2.51-4.185 5.916-4.185 9.467v98.214" stroke="#010202" stroke-width="1.2"/></g></svg>